<svg xmlns="http://www.w3.org/2000/svg" viewBox="0 0 100 120" width="100" height="120">
    <defs>
        <linearGradient id="shieldGradient" x1="0%" y1="0%" x2="0%" y2="100%">
            <stop offset="0%" stop-color="#6f4e37"/>
            <stop offset="40%" stop-color="#5d4037"/>
            <stop offset="100%" stop-color="#4e342e"/>
        </linearGradient>
        <linearGradient id="highlight" x1="0%" y1="0%" x2="100%" y2="100%">
            <stop offset="0%" stop-color="#ffffff" stop-opacity="0.3"/>
            <stop offset="100%" stop-color="#ffffff" stop-opacity="0"/>
        </linearGradient>
        <filter id="dropShadow" x="-20%" y="-20%" width="140%" height="140%">
            <feGaussianBlur in="SourceAlpha" stdDeviation="2"/>
            <feOffset dx="2" dy="2" result="offsetblur"/>
            <feFlood flood-color="#3e2723" flood-opacity="0.7"/>
            <feComposite in2="offsetblur" operator="in"/>
            <feMerge>
                <feMergeNode/>
                <feMergeNode in="SourceGraphic"/>
            </feMerge>
        </filter>
    </defs>

    <!-- Shield shape with gradient and shadow -->
    <path d="M50,5 L90,25 C90,25 92,65 50,95 C8,65 10,25 10,25 L50,5 Z"
          fill="url(#shieldGradient)" filter="url(#dropShadow)"/>

    <!-- Highlight effect -->
    <path d="M50,5 L90,25 C90,25 92,65 50,95 C8,65 10,25 10,25 L50,5 Z"
          fill="url(#highlight)"/>

    <!-- Coffee bean decoration -->
    <path d="M40,45 C40,50 45,55 50,55 C55,55 60,50 60,45 C60,40 55,35 50,35 C45,35 40,40 40,45 Z"
          fill="#3e2723"/>
    <path d="M40,45 C42,47 45,48 50,48 C55,48 58,47 60,45 C58,43 55,42 50,42 C45,42 42,43 40,45 Z"
          fill="#5d4037"/>
</svg>